<svg width="35" height="35" viewBox="0 0 35 35" fill="none" xmlns="http://www.w3.org/2000/svg">
<rect x="0.5" y="0.5" width="34" height="34" fill="#F2F2F2" stroke="#D6D6D6"/>
<path d="M20.5 21.06C19.93 21.06 19.42 21.285 19.03 21.6375L13.6825 18.525C13.72 18.3525 13.75 18.18 13.75 18C13.75 17.82 13.72 17.6475 13.6825 17.475L18.97 14.3925C19.375 14.7675 19.9075 15 20.5 15C21.745 15 22.75 13.995 22.75 12.75C22.75 11.505 21.745 10.5 20.5 10.5C19.255 10.5 18.25 11.505 18.25 12.75C18.25 12.93 18.28 13.1025 18.3175 13.275L13.03 16.3575C12.625 15.9825 12.0925 15.75 11.5 15.75C10.255 15.75 9.25 16.755 9.25 18C9.25 19.245 10.255 20.25 11.5 20.25C12.0925 20.25 12.625 20.0175 13.03 19.6425L18.37 22.7625C18.3325 22.92 18.31 23.085 18.31 23.25C18.31 24.4575 19.2925 25.44 20.5 25.44C21.7075 25.44 22.69 24.4575 22.69 23.25C22.69 22.0425 21.7075 21.06 20.5 21.06Z" fill="#A0A0A0"/>
</svg>
