<svg width="18" height="18" viewBox="0 0 18 18" fill="none" xmlns="http://www.w3.org/2000/svg">
<path d="M3.73719 5.39775C4.64349 5.39775 5.37819 4.66305 5.37819 3.75675C5.37819 2.85045 4.64349 2.11575 3.73719 2.11575C2.83089 2.11575 2.09619 2.85045 2.09619 3.75675C2.09619 4.66305 2.83089 5.39775 3.73719 5.39775Z" fill="white"/>
<path d="M6.92779 6.64127V15.7455H9.75454V11.2433C9.75454 10.0553 9.97804 8.90477 11.451 8.90477C12.9038 8.90477 12.9218 10.263 12.9218 11.3183V15.7463H15.75V10.7535C15.75 8.30102 15.222 6.41628 12.3555 6.41628C10.9793 6.41628 10.0568 7.17153 9.67954 7.88627H9.64129V6.64127H6.92779ZM2.32129 6.64127H5.15254V15.7455H2.32129V6.64127Z" fill="white"/>
</svg>
