<svg width="180" height="164" viewBox="0 0 180 164" fill="none" xmlns="http://www.w3.org/2000/svg">
<rect width="180" height="164" fill="#509A8D"/>
<g clip-path="url(#clip0)">
<path d="M76.7864 58.8964V86.4966H76.7893C76.8776 88.9989 78.9357 91.001 81.4624 91.001C83.9892 91.001 86.0473 88.9989 86.1356 86.4966V86.4956C86.1375 86.4404 86.1385 86.3841 86.1385 86.3279C86.1385 86.2717 86.1375 86.2154 86.1356 86.1602V58.8964H76.7864Z" fill="white"/>
<path d="M67.2654 58.8993C64.7609 58.9875 62.7572 61.0439 62.7572 63.5685C62.7572 66.0931 64.7609 68.1494 67.2654 68.2377C67.3217 68.2396 67.377 68.2406 67.4332 68.2406C67.4895 68.2406 67.5448 68.2396 67.6011 68.2377H86.1384V58.8964H67.2654V58.8993Z" fill="white"/>
<mask id="mask0" mask-type="alpha" maskUnits="userSpaceOnUse" x="76" y="68" width="11" height="15">
<path d="M86.1034 68.2028H76.7513V82.2201H86.1034V68.2028Z" fill="url(#paint0_linear)"/>
</mask>
<g mask="url(#mask0)">
<path opacity="0.5" d="M86.1034 68.2028H76.7513V82.2201H86.1034V68.2028Z" fill="url(#paint1_linear)"/>
</g>
<path d="M89.8684 68.2406H117.492V68.2377C119.996 68.1494 122 66.0931 122 63.5685C122 61.0439 119.996 58.9875 117.492 58.8993H117.491C117.436 58.8973 117.379 58.8964 117.323 58.8964C117.267 58.8964 117.211 58.8973 117.155 58.8993H89.8684V68.2406Z" fill="white"/>
<path d="M89.8723 77.7535C89.9606 80.2558 92.0187 82.2579 94.5454 82.2579C97.0712 82.2579 99.1293 80.2558 99.2186 77.7535V77.7525C99.2205 77.6973 99.2215 77.641 99.2215 77.5848C99.2215 77.5286 99.2205 77.4733 99.2186 77.4171V58.8964H89.8694V77.7535H89.8723Z" fill="white"/>
<mask id="mask1" mask-type="alpha" maskUnits="userSpaceOnUse" x="99" y="58" width="15" height="11">
<path d="M113.281 58.8653H99.2515V68.2096H113.281V58.8653Z" fill="url(#paint2_linear)"/>
</mask>
<g mask="url(#mask1)">
<path opacity="0.5" d="M113.281 58.8653H99.2515V68.2096H113.281V58.8653Z" fill="url(#paint3_linear)"/>
</g>
<path d="M99.2136 55.1036V27.5044H99.2107C99.1215 25.0021 97.0634 23 94.5366 23C92.0099 23 89.9518 25.0021 89.8635 27.5044C89.8616 27.5606 89.8606 27.6159 89.8606 27.6721C89.8606 27.7283 89.8616 27.7836 89.8635 27.8398V55.1046H99.2136V55.1036Z" fill="white"/>
<path d="M108.734 55.1007C111.238 55.0125 113.242 52.9561 113.242 50.4315C113.242 47.9069 111.238 45.8515 108.734 45.7623C108.677 45.7604 108.622 45.7594 108.566 45.7594C108.509 45.7594 108.454 45.7604 108.398 45.7623H89.8606V55.1036H108.734V55.1007Z" fill="white"/>
<mask id="mask2" mask-type="alpha" maskUnits="userSpaceOnUse" x="89" y="31" width="11" height="15">
<path d="M99.2514 31.7809H89.8994V45.7982H99.2514V31.7809Z" fill="url(#paint4_linear)"/>
</mask>
<g mask="url(#mask2)">
<path opacity="0.5" d="M99.2514 31.7809H89.8994V45.7982H99.2514V31.7809Z" fill="url(#paint5_linear)"/>
</g>
<path d="M86.1307 45.7594H58.5082V45.7623C56.0037 45.8515 54 47.9079 54 50.4315C54 52.9561 56.0037 55.0115 58.5082 55.1007H58.5091C58.5644 55.1027 58.6207 55.1036 58.677 55.1036C58.7333 55.1036 58.7886 55.1027 58.8449 55.1007H86.1326V45.7594H86.1307Z" fill="white"/>
<path d="M86.1277 36.2465C86.0394 33.7442 83.9814 31.7421 81.4546 31.7421C78.9279 31.7421 76.8707 33.7442 76.7815 36.2465V36.2475C76.7795 36.3027 76.7786 36.359 76.7786 36.4152C76.7786 36.4714 76.7795 36.5267 76.7815 36.5829V55.1046H86.1307V36.2475H86.1277V36.2465Z" fill="white"/>
<mask id="mask3" mask-type="alpha" maskUnits="userSpaceOnUse" x="62" y="45" width="15" height="11">
<path d="M76.7523 45.7905H62.7233V55.1346H76.7523V45.7905Z" fill="url(#paint6_linear)"/>
</mask>
<g mask="url(#mask3)">
<path opacity="0.5" d="M76.7523 45.7905H62.7233V55.1346H76.7523V45.7905Z" fill="url(#paint7_linear)"/>
</g>
</g>
<path d="M32.7793 122H28.9023V116.18H24.4199V122H20.543V107.723H24.4199V113.016H28.9023V107.723H32.7793V122ZM44.3516 122H35.875V107.723H44.3516V110.818H39.7324V113.064H44.0098V116.16H39.7324V118.855H44.3516V122ZM55.6113 122L54.9082 119.324H50.2695L49.5469 122H45.3086L49.9668 107.664H55.1133L59.8301 122H55.6113ZM54.1074 116.16L53.4922 113.816C53.349 113.296 53.1732 112.622 52.9648 111.795C52.763 110.968 52.6296 110.376 52.5645 110.018C52.5059 110.35 52.3887 110.896 52.2129 111.658C52.0436 112.42 51.6628 113.921 51.0703 116.16H54.1074ZM61.3828 122V107.723H65.2402V118.885H70.7383V122H61.3828ZM79.3223 122H75.4648V110.877H71.9785V107.723H82.7988V110.877H79.3223V122ZM97.0762 122H93.1992V116.18H88.7168V122H84.8398V107.723H88.7168V113.016H93.1992V107.723H97.0762V122ZM105.367 107.723H110.348C112.288 107.723 113.727 108.012 114.664 108.592C115.608 109.165 116.08 110.06 116.08 111.277C116.08 112.078 115.875 112.762 115.465 113.328C115.055 113.895 114.514 114.259 113.844 114.422V114.52C114.729 114.754 115.37 115.145 115.768 115.691C116.165 116.238 116.363 116.948 116.363 117.82C116.363 119.116 115.875 120.138 114.898 120.887C113.928 121.629 112.604 122 110.924 122H105.367V107.723ZM109.225 113.201H110.387C110.94 113.201 111.367 113.087 111.666 112.859C111.972 112.632 112.125 112.293 112.125 111.844C112.125 111.043 111.52 110.643 110.309 110.643H109.225V113.201ZM109.225 116.023V119.021H110.582C111.786 119.021 112.389 118.514 112.389 117.498C112.389 117.023 112.226 116.658 111.9 116.404C111.581 116.15 111.116 116.023 110.504 116.023H109.225ZM118.844 122V107.723H122.701V118.885H128.199V122H118.844ZM143.844 114.842C143.844 117.244 143.255 119.07 142.076 120.32C140.898 121.57 139.173 122.195 136.9 122.195C134.661 122.195 132.942 121.567 131.744 120.311C130.553 119.054 129.957 117.225 129.957 114.822C129.957 112.446 130.549 110.633 131.734 109.383C132.926 108.126 134.654 107.498 136.92 107.498C139.192 107.498 140.914 108.12 142.086 109.363C143.258 110.607 143.844 112.433 143.844 114.842ZM134.02 114.842C134.02 117.602 134.98 118.982 136.9 118.982C137.877 118.982 138.6 118.647 139.068 117.977C139.544 117.306 139.781 116.261 139.781 114.842C139.781 113.416 139.54 112.365 139.059 111.688C138.583 111.004 137.87 110.662 136.92 110.662C134.986 110.662 134.02 112.055 134.02 114.842ZM152.154 113.641H158.316V121.336C156.643 121.909 154.804 122.195 152.799 122.195C150.598 122.195 148.896 121.557 147.691 120.281C146.493 119.005 145.895 117.186 145.895 114.822C145.895 112.518 146.552 110.724 147.867 109.441C149.182 108.159 151.025 107.518 153.395 107.518C154.293 107.518 155.139 107.602 155.934 107.771C156.734 107.941 157.431 108.156 158.023 108.416L156.803 111.443C155.774 110.936 154.645 110.682 153.414 110.682C152.288 110.682 151.415 111.049 150.797 111.785C150.185 112.514 149.879 113.559 149.879 114.92C149.879 116.255 150.156 117.273 150.709 117.977C151.269 118.673 152.073 119.021 153.121 119.021C153.694 119.021 154.221 118.966 154.703 118.855V116.619H152.154V113.641Z" fill="white"/>
<path d="M39.7954 140L39.2261 138.131H36.3633L35.7939 140H34L36.7715 132.115H38.8071L41.5894 140H39.7954ZM38.8286 136.734C38.3022 135.041 38.005 134.083 37.937 133.861C37.8726 133.639 37.826 133.463 37.7974 133.334C37.6792 133.793 37.3408 134.926 36.7822 136.734H38.8286ZM42.583 140V132.147H44.248V138.625H47.4331V140H42.583ZM48.8027 140V132.147H50.4678V138.625H53.6528V140H48.8027ZM62.687 140L62.1177 138.131H59.2549L58.6855 140H56.8916L59.6631 132.115H61.6987L64.481 140H62.687ZM61.7202 136.734C61.1938 135.041 60.8966 134.083 60.8286 133.861C60.7642 133.639 60.7176 133.463 60.689 133.334C60.5708 133.793 60.2324 134.926 59.6738 136.734H61.7202ZM65.4746 132.147H67.9185C69.0321 132.147 69.8395 132.307 70.3408 132.625C70.8457 132.941 71.0981 133.444 71.0981 134.135C71.0981 134.604 70.9871 134.989 70.7651 135.29C70.5467 135.59 70.2549 135.771 69.8896 135.832V135.886C70.3874 135.997 70.7454 136.204 70.9639 136.509C71.1859 136.813 71.2969 137.218 71.2969 137.723C71.2969 138.439 71.0373 138.997 70.5181 139.398C70.0024 139.799 69.3006 140 68.4126 140H65.4746V132.147ZM67.1396 135.257H68.1064C68.5576 135.257 68.8835 135.188 69.084 135.048C69.2881 134.908 69.3901 134.677 69.3901 134.355C69.3901 134.054 69.2791 133.839 69.0571 133.71C68.8387 133.578 68.4914 133.512 68.0151 133.512H67.1396V135.257ZM67.1396 136.579V138.625H68.2246C68.6829 138.625 69.0213 138.537 69.2397 138.362C69.4582 138.186 69.5674 137.918 69.5674 137.556C69.5674 136.904 69.1019 136.579 68.1709 136.579H67.1396ZM79.9927 136.063C79.9927 137.363 79.6704 138.362 79.0259 139.06C78.3813 139.758 77.4575 140.107 76.2544 140.107C75.0513 140.107 74.1274 139.758 73.4829 139.06C72.8384 138.362 72.5161 137.359 72.5161 136.052C72.5161 134.745 72.8384 133.748 73.4829 133.061C74.131 132.369 75.0584 132.024 76.2651 132.024C77.4718 132.024 78.3939 132.371 79.0312 133.066C79.6722 133.761 79.9927 134.76 79.9927 136.063ZM74.2617 136.063C74.2617 136.94 74.4282 137.601 74.7612 138.045C75.0942 138.489 75.592 138.711 76.2544 138.711C77.5828 138.711 78.2471 137.828 78.2471 136.063C78.2471 134.294 77.5864 133.41 76.2651 133.41C75.6027 133.41 75.1032 133.633 74.7666 134.081C74.43 134.525 74.2617 135.186 74.2617 136.063ZM88.0117 132.147V137.229C88.0117 137.809 87.881 138.317 87.6196 138.754C87.3618 139.191 86.9876 139.526 86.4971 139.758C86.0065 139.991 85.4264 140.107 84.7568 140.107C83.7471 140.107 82.9629 139.85 82.4043 139.334C81.8457 138.815 81.5664 138.106 81.5664 137.207V132.147H83.2261V136.955C83.2261 137.56 83.3478 138.004 83.5913 138.287C83.8348 138.569 84.2376 138.711 84.7998 138.711C85.3441 138.711 85.738 138.569 85.9814 138.287C86.2285 138 86.3521 137.553 86.3521 136.944V132.147H88.0117ZM92.9639 140H91.2988V133.533H89.1665V132.147H95.0962V133.533H92.9639V140ZM105.597 140H103.937V136.611H100.827V140H99.1621V132.147H100.827V135.225H103.937V132.147H105.597V140ZM112.106 140H107.584V132.147H112.106V133.512H109.249V135.236H111.908V136.6H109.249V138.625H112.106V140ZM118.557 140L117.988 138.131H115.125L114.556 140H112.762L115.533 132.115H117.569L120.351 140H118.557ZM117.59 136.734C117.064 135.041 116.767 134.083 116.699 133.861C116.634 133.639 116.588 133.463 116.559 133.334C116.441 133.793 116.103 134.926 115.544 136.734H117.59ZM121.345 140V132.147H123.01V138.625H126.195V140H121.345ZM130.594 140H128.929V133.533H126.796V132.147H132.726V133.533H130.594V140ZM140.369 140H138.709V136.611H135.6V140H133.935V132.147H135.6V135.225H138.709V132.147H140.369V140Z" fill="white"/>
<defs>
<linearGradient id="paint0_linear" x1="81.4279" y1="78.215" x2="81.4279" y2="66.1495" gradientUnits="userSpaceOnUse">
<stop/>
<stop offset="0.3235" stop-color="#020202"/>
<stop offset="0.44" stop-color="#090909"/>
<stop offset="0.523" stop-color="#141414"/>
<stop offset="0.5902" stop-color="#252525"/>
<stop offset="0.6478" stop-color="#3B3B3B"/>
<stop offset="0.6987" stop-color="#575757"/>
<stop offset="0.7448" stop-color="#777777"/>
<stop offset="0.7872" stop-color="#9D9D9D"/>
<stop offset="0.8266" stop-color="#C8C8C8"/>
<stop offset="0.8616" stop-color="#F6F6F6"/>
<stop offset="0.868" stop-color="white"/>
</linearGradient>
<linearGradient id="paint1_linear" x1="81.4279" y1="78.215" x2="81.4279" y2="66.1495" gradientUnits="userSpaceOnUse">
<stop stop-color="white"/>
<stop offset="0.332" stop-color="#FDFDFD"/>
<stop offset="0.4516" stop-color="#F6F6F6"/>
<stop offset="0.5369" stop-color="#EBEAEB"/>
<stop offset="0.6058" stop-color="#DADADA"/>
<stop offset="0.6649" stop-color="#C5C4C4"/>
<stop offset="0.7172" stop-color="#AAA8A9"/>
<stop offset="0.7645" stop-color="#8A8888"/>
<stop offset="0.808" stop-color="#656263"/>
<stop offset="0.8467" stop-color="#3D393A"/>
<stop offset="0.868" stop-color="#231F20"/>
</linearGradient>
<linearGradient id="paint2_linear" x1="109.273" y1="63.5376" x2="97.1973" y2="63.5376" gradientUnits="userSpaceOnUse">
<stop/>
<stop offset="0.3235" stop-color="#020202"/>
<stop offset="0.44" stop-color="#090909"/>
<stop offset="0.523" stop-color="#141414"/>
<stop offset="0.5902" stop-color="#252525"/>
<stop offset="0.6478" stop-color="#3B3B3B"/>
<stop offset="0.6987" stop-color="#575757"/>
<stop offset="0.7448" stop-color="#777777"/>
<stop offset="0.7872" stop-color="#9D9D9D"/>
<stop offset="0.8266" stop-color="#C8C8C8"/>
<stop offset="0.8616" stop-color="#F6F6F6"/>
<stop offset="0.868" stop-color="white"/>
</linearGradient>
<linearGradient id="paint3_linear" x1="109.273" y1="63.5376" x2="97.1973" y2="63.5376" gradientUnits="userSpaceOnUse">
<stop stop-color="white"/>
<stop offset="0.332" stop-color="#FDFDFD"/>
<stop offset="0.4516" stop-color="#F6F6F6"/>
<stop offset="0.5369" stop-color="#EBEAEB"/>
<stop offset="0.6058" stop-color="#DADADA"/>
<stop offset="0.6649" stop-color="#C5C4C4"/>
<stop offset="0.7172" stop-color="#AAA8A9"/>
<stop offset="0.7645" stop-color="#8A8888"/>
<stop offset="0.808" stop-color="#656263"/>
<stop offset="0.8467" stop-color="#3D393A"/>
<stop offset="0.868" stop-color="#231F20"/>
</linearGradient>
<linearGradient id="paint4_linear" x1="94.5755" y1="35.7851" x2="94.5755" y2="47.8506" gradientUnits="userSpaceOnUse">
<stop/>
<stop offset="0.3235" stop-color="#020202"/>
<stop offset="0.44" stop-color="#090909"/>
<stop offset="0.523" stop-color="#141414"/>
<stop offset="0.5902" stop-color="#252525"/>
<stop offset="0.6478" stop-color="#3B3B3B"/>
<stop offset="0.6987" stop-color="#575757"/>
<stop offset="0.7448" stop-color="#777777"/>
<stop offset="0.7872" stop-color="#9D9D9D"/>
<stop offset="0.8266" stop-color="#C8C8C8"/>
<stop offset="0.8616" stop-color="#F6F6F6"/>
<stop offset="0.868" stop-color="white"/>
</linearGradient>
<linearGradient id="paint5_linear" x1="94.5755" y1="35.7851" x2="94.5755" y2="47.8506" gradientUnits="userSpaceOnUse">
<stop stop-color="white"/>
<stop offset="0.332" stop-color="#FDFDFD"/>
<stop offset="0.4516" stop-color="#F6F6F6"/>
<stop offset="0.5369" stop-color="#EBEAEB"/>
<stop offset="0.6058" stop-color="#DADADA"/>
<stop offset="0.6649" stop-color="#C5C4C4"/>
<stop offset="0.7172" stop-color="#AAA8A9"/>
<stop offset="0.7645" stop-color="#8A8888"/>
<stop offset="0.808" stop-color="#656263"/>
<stop offset="0.8467" stop-color="#3D393A"/>
<stop offset="0.868" stop-color="#231F20"/>
</linearGradient>
<linearGradient id="paint6_linear" x1="66.7305" y1="50.4626" x2="78.8062" y2="50.4626" gradientUnits="userSpaceOnUse">
<stop/>
<stop offset="0.3235" stop-color="#020202"/>
<stop offset="0.44" stop-color="#090909"/>
<stop offset="0.523" stop-color="#141414"/>
<stop offset="0.5902" stop-color="#252525"/>
<stop offset="0.6478" stop-color="#3B3B3B"/>
<stop offset="0.6987" stop-color="#575757"/>
<stop offset="0.7448" stop-color="#777777"/>
<stop offset="0.7872" stop-color="#9D9D9D"/>
<stop offset="0.8266" stop-color="#C8C8C8"/>
<stop offset="0.8616" stop-color="#F6F6F6"/>
<stop offset="0.868" stop-color="white"/>
</linearGradient>
<linearGradient id="paint7_linear" x1="66.7305" y1="50.4626" x2="78.8062" y2="50.4626" gradientUnits="userSpaceOnUse">
<stop stop-color="white"/>
<stop offset="0.332" stop-color="#FDFDFD"/>
<stop offset="0.4516" stop-color="#F6F6F6"/>
<stop offset="0.5369" stop-color="#EBEAEB"/>
<stop offset="0.6058" stop-color="#DADADA"/>
<stop offset="0.6649" stop-color="#C5C4C4"/>
<stop offset="0.7172" stop-color="#AAA8A9"/>
<stop offset="0.7645" stop-color="#8A8888"/>
<stop offset="0.808" stop-color="#656263"/>
<stop offset="0.8467" stop-color="#3D393A"/>
<stop offset="0.868" stop-color="#231F20"/>
</linearGradient>
<clipPath id="clip0">
<rect width="68" height="68" fill="white" transform="translate(54 23)"/>
</clipPath>
</defs>
</svg>
