<svg width="18" height="18" viewBox="0 0 18 18" fill="none" xmlns="http://www.w3.org/2000/svg">
<path d="M3.80762 7.09276C3.80762 6.50926 3.90962 5.95803 4.11062 5.44353C4.31312 4.92828 4.59287 4.47603 4.95137 4.09203C5.31062 3.70803 5.71862 3.3757 6.18437 3.0952C6.64937 2.8132 7.14887 2.6032 7.68587 2.4622C8.22062 2.32195 8.76587 2.25145 9.32462 2.25145C10.1789 2.25145 10.9739 2.43225 11.7111 2.79225C12.4454 3.1515 13.0431 3.675 13.5044 4.36275C13.9649 5.049 14.1936 5.82525 14.1936 6.69075C14.1936 7.20975 14.1426 7.7175 14.0384 8.214C13.9349 8.71125 13.7744 9.19123 13.5539 9.64873C13.3319 10.1085 13.0634 10.5128 12.7424 10.8615C12.4229 11.2095 12.0321 11.4877 11.5664 11.6969C11.1006 11.9047 10.5899 12.0097 10.0326 12.0097C9.66587 12.0097 9.29987 11.9235 8.93837 11.7502C8.57687 11.5777 8.31737 11.3407 8.16137 11.0369C8.10662 11.2477 8.03162 11.5522 7.93187 11.9505C7.83587 12.348 7.77137 12.6045 7.74287 12.7208C7.71287 12.8363 7.65737 13.029 7.57637 13.296C7.49537 13.563 7.42487 13.7564 7.36562 13.8727C7.30637 13.9874 7.22087 14.1563 7.10762 14.3783C6.99362 14.6003 6.86762 14.8103 6.73412 15.0068C6.59837 15.2033 6.43037 15.438 6.23012 15.708L6.11837 15.7477L6.04412 15.6668C5.96387 14.817 5.92262 14.3085 5.92262 14.1405C5.92262 13.6432 5.98187 13.0852 6.09887 12.4657C6.21362 11.847 6.39512 11.0692 6.63887 10.134C6.88262 9.19946 7.02212 8.64976 7.05962 8.48701C6.88787 8.13676 6.80087 7.67924 6.80087 7.11674C6.80087 6.66749 6.94112 6.24675 7.22237 5.85075C7.50437 5.45625 7.86062 5.25896 8.29262 5.25896C8.62337 5.25896 8.87987 5.36852 9.06362 5.58827C9.24812 5.80727 9.33812 6.08328 9.33812 6.42003C9.33812 6.77703 9.21962 7.29372 8.98112 7.96947C8.74262 8.64597 8.62412 9.1507 8.62412 9.48595C8.62412 9.8257 8.74562 10.11 8.98862 10.3327C9.23162 10.557 9.52787 10.6694 9.87287 10.6694C10.1699 10.6694 10.4451 10.602 10.7009 10.4662C10.9566 10.332 11.1681 10.1475 11.3376 9.91652C11.5079 9.68327 11.6609 9.42673 11.7921 9.14473C11.9249 8.86273 12.0284 8.56495 12.1004 8.2477C12.1724 7.9312 12.2279 7.63048 12.2624 7.34773C12.2991 7.06348 12.3149 6.79496 12.3149 6.53996C12.3149 5.60471 12.0179 4.87578 11.4276 4.35378C10.8344 3.83177 10.0619 3.57219 9.11162 3.57219C8.03087 3.57219 7.12712 3.92169 6.40337 4.62294C5.67887 5.32194 5.31437 6.21075 5.31437 7.2885C5.31437 7.52625 5.35037 7.75571 5.41862 7.97771C5.48537 8.19896 5.55812 8.37519 5.63687 8.50569C5.71487 8.63394 5.78837 8.75924 5.85512 8.87474C5.92262 8.99024 5.95787 9.07271 5.95787 9.12221C5.95787 9.27371 5.91812 9.47099 5.83787 9.71474C5.75462 9.95849 5.65637 10.0799 5.53787 10.0799C5.52662 10.0799 5.48012 10.0717 5.39912 10.0545C5.12312 9.97349 4.87787 9.822 4.66487 9.60075C4.45187 9.37875 4.28612 9.12227 4.17062 8.83427C4.05587 8.54477 3.96737 8.25297 3.90662 7.95747C3.83537 7.66197 3.80762 7.37401 3.80762 7.09276Z" fill="white"/>
</svg>
