<svg width="18" height="18" viewBox="0 0 18 18" fill="none" xmlns="http://www.w3.org/2000/svg">
<path d="M14.7247 5.99775C14.7345 6.129 14.7345 6.2595 14.7345 6.39C14.7345 10.3838 11.6947 14.9858 6.1395 14.9858C4.428 14.9858 2.838 14.49 1.5 13.629C1.743 13.6568 1.977 13.6665 2.22975 13.6665C3.642 13.6665 4.94175 13.1895 5.9805 12.3757C4.65225 12.348 3.53925 11.478 3.15525 10.281C3.342 10.3088 3.5295 10.3275 3.726 10.3275C3.99675 10.3275 4.269 10.29 4.52175 10.2248C3.1365 9.94425 2.09925 8.7285 2.09925 7.26V7.2225C2.502 7.44675 2.96925 7.587 3.46425 7.60575C2.6505 7.06425 2.11725 6.138 2.11725 5.09025C2.11725 4.52925 2.2665 4.01475 2.52825 3.56625C4.0155 5.3985 6.25125 6.59625 8.75775 6.7275C8.71125 6.5025 8.68275 6.26925 8.68275 6.03525C8.68275 4.37025 10.0297 3.01425 11.7037 3.01425C12.5737 3.01425 13.359 3.37875 13.911 3.96825C14.5935 3.837 15.2475 3.58425 15.828 3.2385C15.6037 3.93975 15.126 4.52925 14.4997 4.9035C15.108 4.8375 15.6975 4.6695 16.239 4.4355C15.828 5.034 15.3142 5.56725 14.7247 5.99775Z" fill="white"/>
</svg>
